<?xml version="1.0" encoding="UTF-8" standalone="no"?>
<svg
   xmlns:dc="http://purl.org/dc/elements/1.1/"
   xmlns:cc="http://creativecommons.org/ns#"
   xmlns:rdf="http://www.w3.org/1999/02/22-rdf-syntax-ns#"
   xmlns:svg="http://www.w3.org/2000/svg"
   xmlns="http://www.w3.org/2000/svg"
   xmlns:sodipodi="http://sodipodi.sourceforge.net/DTD/sodipodi-0.dtd"
   xmlns:inkscape="http://www.inkscape.org/namespaces/inkscape"
   width="250"
   height="250"
   viewBox="0 0 66.807291 66.807292"
   version="1.1"
   id="svg8"
   inkscape:version="1.0.1 (3bc2e813f5, 2020-09-07)"
   sodipodi:docname="sadeem.svg">
  <defs
     id="defs2">
    <clipPath
       clipPathUnits="userSpaceOnUse"
       id="clipPath18">
      <path
         d="M 0,656 H 1260 V 0 H 0 Z"
         id="path16" />
    </clipPath>
    <clipPath
       clipPathUnits="userSpaceOnUse"
       id="clipPath26">
      <path
         d="M 449.767,455.836 H 777.478 V 146.649 H 449.767 Z"
         id="path24" />
    </clipPath>
    <clipPath
       clipPathUnits="userSpaceOnUse"
       id="clipPath98">
      <path
         d="M 443.172,486.354 H 763.781 V 136.16 H 443.172 Z"
         id="path96" />
    </clipPath>
    <clipPath
       clipPathUnits="userSpaceOnUse"
       id="clipPath166">
      <path
         d="M 465.574,476.962 H 800 V 244.821 H 465.574 Z"
         id="path164" />
    </clipPath>
    <clipPath
       clipPathUnits="userSpaceOnUse"
       id="clipPath308">
      <path
         d="M 0,656 H 1260 V 0 H 0 Z"
         id="path306" />
    </clipPath>
  </defs>
  <sodipodi:namedview
     id="base"
     pagecolor="#2d323e"
     bordercolor="#666666"
     borderopacity="1.0"
     inkscape:pageopacity="1"
     inkscape:pageshadow="2"
     inkscape:zoom="1.979899"
     inkscape:cx="-4.3241735"
     inkscape:cy="122.41326"
     inkscape:document-units="cm"
     inkscape:current-layer="layer1"
     inkscape:document-rotation="0"
     showgrid="false"
     units="px"
     scale-x="10.1"
     inkscape:pagecheckerboard="false"
     borderlayer="false"
     inkscape:snap-midpoints="false"
     inkscape:window-width="1920"
     inkscape:window-height="1016"
     inkscape:window-x="0"
     inkscape:window-y="34"
     inkscape:window-maximized="1" />
  <metadata
     id="metadata5">
    <rdf:RDF>
      <cc:Work
         rdf:about="">
        <dc:format>image/svg+xml</dc:format>
        <dc:type
           rdf:resource="http://purl.org/dc/dcmitype/StillImage" />
        <dc:title></dc:title>
        <dc:publisher>
          <cc:Agent>
            <dc:title>@itsDaRKSAMA</dc:title>
          </cc:Agent>
        </dc:publisher>
        <dc:date>DaR</dc:date>
      </cc:Work>
    </rdf:RDF>
  </metadata>
  <g
     inkscape:label="Layer 1"
     inkscape:groupmode="layer"
     id="layer1">
    <g
       id="g12378"
       transform="matrix(1.0297289,0,0,1.0297289,-2.2258194,0.96371006)">
      <g
         id="g12272"
         style="fill:#f2f2f2"
         transform="matrix(0.99222654,0,0,0.99222654,-0.13561599,1.5287026)">
        <path
           d="M 5.1544794,55.346844 H 4.7460288 v -0.510515 h 0.4084506 z m -0.7535637,0 H 3.9924651 v -0.510515 h 0.4084506 z m 3.1121227,-1.939425 h -0.086231 c -0.5292116,0 -0.9376622,-0.312108 -1.0700605,-0.828538 0,1.002717 -0.8512408,1.801113 -1.8293474,1.801113 -1.0584231,0 -1.8638778,-0.936518 -1.8638778,-2.13726 v -0.600371 h 0.4084506 v 0.522344 c 0,1.080553 0.5580187,1.795008 1.4727878,1.795008 0.7707335,0 1.4437899,-0.672293 1.4437899,-1.392853 0,-0.540276 -0.2760523,-0.81652 -0.7478404,-0.81652 v -0.378117 h -0.00572 c 0,-0.0061 0.1035912,-0.01221 0.3105827,-0.01221 0.3510271,0 0.8342618,0.378498 1.012637,0.858681 0.2127148,0.576524 0.4025365,0.768635 0.834071,0.768635 h 0.120761 z"
           style="fill:#f2f2f2;fill-opacity:1;fill-rule:nonzero;stroke:none;stroke-width:0.190776"
           id="path310" />
        <path
           d="M 8.7505998,50.24932 H 8.3421492 v -0.510325 h 0.4084506 z m 0,0.432488 v 1.668905 c 0,0.702436 -0.2819664,1.056706 -0.8457083,1.056706 H 7.404487 v -0.414173 h 0.368197 c 0.2472452,0 0.4082598,-0.08413 0.4889579,-0.252397 0.057423,-0.107979 0.086231,-0.30009 0.086231,-0.576142 v -1.482899 z"
           style="fill:#f2f2f2;fill-opacity:1;fill-rule:nonzero;stroke:none;stroke-width:0.190776"
           id="path312" />
        <path
           d="M 9.9242514,53.407419 H 9.5215241 v -3.884382 h 0.4027273 z"
           style="fill:#f2f2f2;fill-opacity:1;fill-rule:nonzero;stroke:none;stroke-width:0.190776"
           id="path314" />
        <path
           d="m 12.576414,53.407362 h -0.989553 c -0.109124,0.618495 -0.500405,0.942622 -1.167738,0.984784 v -0.402155 c 0.535126,0 0.805455,-0.306386 0.805455,-1.014736 v -2.293504 h 0.402727 v 2.305523 h 0.949109 z"
           style="fill:#f2f2f2;fill-opacity:1;fill-rule:nonzero;stroke:none;stroke-width:0.190776"
           id="path318" />
        <path
           d="m 13.796424,54.32009 h -0.40845 v -0.510325 h 0.40845 z m 0.638526,-0.912671 h -1.984829 v -0.414173 h 0.368197 c 0.247436,0 0.40845,-0.08413 0.489148,-0.246101 0.05742,-0.114275 0.08623,-0.306386 0.08623,-0.582438 v -1.482899 h 0.402727 v 1.668905 c 0,0.258311 -0.03472,0.474269 -0.109314,0.636619 h 0.74784 z"
           style="fill:#f2f2f2;fill-opacity:1;fill-rule:nonzero;stroke:none;stroke-width:0.190776"
           id="path320" />
        <path
           d="m 15.689109,54.326004 h -0.40845 v -0.510325 h 0.40845 z m -0.753564,0 h -0.40845 v -0.510325 h 0.40845 z m 1.386367,-0.918585 h -1.984639 v -0.414173 h 0.368197 c 0.247245,0 0.40826,-0.08413 0.488958,-0.246101 0.05742,-0.114275 0.08623,-0.306386 0.08623,-0.582438 v -1.482899 h 0.402727 v 1.668905 c 0,0.258311 -0.03453,0.474269 -0.109315,0.636619 h 0.747841 z"
           style="fill:#f2f2f2;fill-opacity:1;fill-rule:nonzero;stroke:none;stroke-width:0.190776"
           id="path322" />
        <path
           d="m 21.654834,53.407362 h -5.464958 v -0.420088 h 0.534934 c 0.368197,0 0.603996,-0.25831 0.603996,-0.768444 v -1.537079 h 0.408451 v 1.668905 c 0,0.2461 -0.03453,0.450421 -0.09787,0.61239 v 0.02423 h 0.753754 c 0.368197,0 0.488958,-0.186197 0.488958,-0.822624 v -1.482899 h 0.402727 v 1.668905 c 0,0.25831 -0.03453,0.474268 -0.109505,0.636618 h 0.690417 c 0.431535,0 0.57538,-0.186197 0.57538,-0.822624 v -1.482899 h 0.402727 v 1.668905 c 0,0.25831 -0.04025,0.474268 -0.115038,0.636618 h 0.926025 z"
           style="fill:#f2f2f2;fill-opacity:1;fill-rule:nonzero;stroke:none;stroke-width:0.190776"
           id="path326" />
        <path
           d="m 22.892358,49.522904 v 2.827676 c 0,0.702627 -0.281966,1.056706 -0.845708,1.056706 h -0.500405 v -0.414173 h 0.368197 c 0.247245,0 0.408451,-0.08394 0.488958,-0.252206 0.05742,-0.107979 0.08623,-0.30009 0.08623,-0.576142 v -2.641861 z"
           style="fill:#f2f2f2;fill-opacity:1;fill-rule:nonzero;stroke:none;stroke-width:0.190776"
           id="path330" />
        <path
           d="m 24.066067,53.407419 h -0.402728 v -3.884382 h 0.402728 z"
           style="fill:#f2f2f2;fill-opacity:1;fill-rule:nonzero;stroke:none;stroke-width:0.190776"
           id="path332" />
        <path
           d="m 27.408646,50.24932 h -0.40845 v -0.510325 h 0.40845 z m 2.347113,3.158099 h -1.133398 c -0.281776,0.624409 -0.810987,0.996612 -1.40926,0.996612 -0.943576,0 -1.628079,-0.876423 -1.628079,-2.065337 v -1.656886 h 0.402727 v 1.572945 c 0,1.032669 0.465874,1.741209 1.225352,1.741209 0.753564,0 1.219629,-0.678589 1.219629,-1.741209 v -1.572945 h 0.402727 v 1.656886 c 0,0.228168 -0.02308,0.444317 -0.07478,0.648638 h 0.995086 z"
           style="fill:#f2f2f2;fill-opacity:1;fill-rule:nonzero;stroke:none;stroke-width:0.190776"
           id="path334" />
        <path
           d="m 32.362307,52.524834 c 0,-0.270138 -0.0517,-0.486287 -0.149568,-0.648256 -0.126484,-0.198215 -0.310774,-0.294366 -0.552296,-0.294366 -0.264605,0 -0.46015,0.108169 -0.592549,0.318213 -0.109314,0.174179 -0.166737,0.402155 -0.166737,0.696331 0,0.27052 0.05742,0.492583 0.166737,0.660656 0.132399,0.198216 0.32222,0.294176 0.569656,0.294176 0.483044,0 0.724757,-0.342251 0.724757,-1.026754 m 0.465874,0.04216 c 0,0.390137 -0.1034,0.708541 -0.310583,0.960556 -0.218629,0.270138 -0.512041,0.402345 -0.880048,0.402345 -0.443171,0 -0.776838,-0.174178 -0.995467,-0.522534 H 29.53196 v -0.420088 h 0.943385 c -0.03453,-0.126103 -0.0517,-0.264224 -0.0517,-0.414365 0,-0.396241 0.109315,-0.720368 0.327943,-0.978678 0.218629,-0.257929 0.517765,-0.384223 0.891495,-0.384223 0.37392,0 0.673247,0.132208 0.885962,0.390137 0.201459,0.246291 0.299136,0.570609 0.299136,0.96685"
           style="fill:#f2f2f2;fill-opacity:1;fill-rule:nonzero;stroke:none;stroke-width:0.190776"
           id="path338" />
        <path
           d="m 36.838265,53.407362 h -3.382643 v -0.414174 h 0.937853 l -0.742308,-3.007959 h 0.431535 l 0.730671,3.007959 h 0.166737 c 0.420088,0 0.575189,-0.180092 0.575189,-0.828538 v -2.64167 h 0.408641 v 2.827676 c 0,0.25831 -0.04025,0.474268 -0.120951,0.636618 h 0.995276 z m -2.473597,-4.609139 -0.235798,0.02404 c -0.02308,-0.138122 -0.09234,-0.210235 -0.213097,-0.210235 -0.155291,0 -0.235798,0.10817 -0.235798,0.324128 0,0.08413 0.01736,0.156245 0.05761,0.216149 h 0.615442 v 0.240186 H 33.25435 v -0.240186 h 0.230076 c -0.02881,-0.06582 -0.04025,-0.137931 -0.04025,-0.209854 0,-0.306576 0.149568,-0.528639 0.471597,-0.528639 0.247627,0 0.397004,0.126294 0.448895,0.384413"
           style="fill:#f2f2f2;fill-opacity:1;fill-rule:nonzero;stroke:none;stroke-width:0.190776"
           id="path342" />
        <path
           d="m 38.029507,49.522904 v 2.827676 c 0,0.702627 -0.281966,1.056706 -0.845708,1.056706 h -0.500596 v -0.414173 h 0.368388 c 0.247245,0 0.408642,-0.08394 0.488958,-0.252206 0.05761,-0.107979 0.08642,-0.30009 0.08642,-0.576142 v -2.641861 z"
           style="fill:#f2f2f2;fill-opacity:1;fill-rule:nonzero;stroke:none;stroke-width:0.190776"
           id="path346" />
        <path
           d="m 43.086549,51.996462 c 0,-0.576333 -0.247436,-0.930603 -0.690226,-0.930603 -0.471788,0 -0.736394,0.378308 -0.736394,0.996802 0,0.564314 0.264606,0.936518 0.71331,0.936518 0.477511,0 0.71331,-0.336338 0.71331,-1.002717 m 1.777456,1.410976 h -0.189821 c -0.638336,0 -1.0527,-0.234081 -1.236608,-0.708349 -0.207182,0.462249 -0.563742,0.690417 -1.064337,0.690417 -0.770924,0 -1.208182,-0.558401 -1.208182,-1.356987 0,-0.402155 0.115038,-0.732388 0.339581,-0.984784 h -0.788285 c -0.523489,0 -0.828539,0.504601 -0.828539,1.32093 v 2.011348 h -0.402346 v -2.035385 c 0,-1.11661 0.408451,-1.662992 1.230885,-1.662992 h 1.685693 c 0.67878,0 1.1044,0.498497 1.184907,1.338864 0.05761,0.594457 0.466065,0.96666 1.041445,0.96666 h 0.235607 c -0.0055,0.08413 -0.0055,0.162159 -0.0055,0.234272 0,0.07192 0,0.131826 0.0055,0.186006"
           style="fill:#f2f2f2;fill-opacity:1;fill-rule:nonzero;stroke:none;stroke-width:0.190776"
           id="path350" />
        <path
           d="m 46.130412,54.326004 h -0.408451 v -0.510325 h 0.408451 z m -0.753564,0 h -0.408451 v -0.510325 h 0.408451 z m 0.759287,-3.644196 v 1.668905 c 0,0.702436 -0.281776,1.056706 -0.845518,1.056706 h -0.506509 v -0.414173 h 0.37392 c 0.247436,0 0.408642,-0.08413 0.489149,-0.252397 0.05742,-0.107979 0.08623,-0.30009 0.08623,-0.576142 v -1.482899 z"
           style="fill:#f2f2f2;fill-opacity:1;fill-rule:nonzero;stroke:none;stroke-width:0.190776"
           id="path352" />
        <path
           d="m 50.174683,53.407362 h -3.457236 v -0.420088 h 2.128293 c 0,-0.534362 -0.09176,-0.966851 -0.281776,-1.290979 -0.230075,-0.390326 -0.587016,-0.594266 -1.064146,-0.624217 h -0.155482 v -0.396241 c 1.213714,0 1.852431,0.768444 1.915769,2.311437 h 0.914578 z"
           style="fill:#f2f2f2;fill-opacity:1;fill-rule:nonzero;stroke:none;stroke-width:0.190776"
           id="path356" />
        <path
           d="m 54.679525,50.681713 v 1.668905 c 0,0.702627 -0.281966,1.056706 -0.851241,1.056706 H 50.01983 v -0.420088 h 0.535126 c 0.368197,0 0.569275,-0.25831 0.609719,-0.768444 v -1.537079 h 0.402918 v 1.668905 c 0,0.246101 -0.03472,0.450421 -0.09806,0.61239 v 0.02423 h 0.753564 c 0.368388,0 0.488958,-0.186197 0.488958,-0.822624 v -1.482899 h 0.402918 v 1.668905 c 0,0.258501 -0.03472,0.474268 -0.109314,0.636618 h 0.690226 c 0.431344,0 0.575188,-0.186197 0.575188,-0.822624 v -1.482899 z"
           style="fill:#f2f2f2;fill-opacity:1;fill-rule:nonzero;stroke:none;stroke-width:0.190776"
           id="path360" />
        <path
           d="m 58.597789,55.346844 h -0.40845 v -0.510515 h 0.40845 z m -0.753563,0 h -0.408451 v -0.510515 h 0.408451 z m 2.059422,-2.996131 v 0.02404 c 0,1.140838 -0.828347,2.02928 -1.869601,2.02928 h -0.03434 c -1.052891,0 -1.864069,-0.894356 -1.864069,-2.053318 V 51.77438 h 0.408451 c 0,0.372203 0,0.588352 0.0057,0.648447 0.06906,0.984592 0.621356,1.573135 1.467064,1.573135 0.914579,0 1.484044,-0.690607 1.484044,-1.777265 H 57.98807 c 0.07478,-1.224971 0.673057,-1.825151 1.691226,-1.825151 v 0.366099 c -0.627079,0 -1.024083,0.342442 -1.190821,1.032668 h 1.40945 z"
           style="fill:#f2f2f2;fill-opacity:1;fill-rule:nonzero;stroke:none;stroke-width:0.190776"
           id="path362" />
        <path
           d="m 63.005088,53.407362 h -2.554295 v -0.420088 h 2.128675 c 0,-0.534362 -0.09214,-0.966851 -0.281967,-1.290979 -0.230075,-0.390326 -0.586826,-0.594266 -1.064146,-0.624217 h -0.155482 v -0.396241 c 0.810987,0 1.369196,0.335956 1.662609,1.00863 0.178375,0.402155 0.264606,0.972384 0.264606,1.722895"
           style="fill:#f2f2f2;fill-opacity:1;fill-rule:nonzero;stroke:none;stroke-width:0.190776"
           id="path366" />
        <path
           d="m 65.04177,53.407362 h -0.454428 c -0.207182,0 -0.379643,-0.07784 -0.523488,-0.227977 -0.166738,-0.168264 -0.247436,-0.40845 -0.247436,-0.726473 V 49.52298 h 0.414365 v 2.677726 c 0,0.276053 0.04025,0.474268 0.115038,0.594457 0.06334,0.101874 0.172461,0.161969 0.327752,0.186197 0.04025,0.0059 0.08623,0.0059 0.368197,0.0059 z"
           style="fill:#f2f2f2;fill-opacity:1;fill-rule:nonzero;stroke:none;stroke-width:0.190776"
           id="path370" />
        <path
           d="m 66.290435,50.24932 h -0.408642 v -0.510325 h 0.408642 z m 0,0.432488 v 1.668905 c 0,0.702436 -0.281967,1.056706 -0.845709,1.056706 h -0.500595 v -0.414173 h 0.368197 c 0.247436,0 0.408451,-0.08413 0.488958,-0.252397 0.05761,-0.107979 0.08623,-0.30009 0.08623,-0.576142 v -1.482899 z"
           style="fill:#f2f2f2;fill-opacity:1;fill-rule:nonzero;stroke:none;stroke-width:0.190776"
           id="path372" />
        <path
           d="M 3.6144432,58.227976 C 3.2916509,58.135259 3.0568061,58.021366 2.9097181,57.885915 2.7628208,57.750846 2.6891814,57.583727 2.6891814,57.385129 c 0,-0.224924 0.089855,-0.410549 0.269566,-0.557828 0.1797106,-0.146706 0.41322,-0.220345 0.7007188,-0.220345 0.1961174,0 0.3708679,0.03777 0.5242515,0.113702 0.1537651,0.07574 0.2726183,0.180283 0.3567504,0.313635 0.084323,0.133161 0.1264842,0.278914 0.1264842,0.437067 H 4.2886442 c 0,-0.173034 -0.054753,-0.309057 -0.1646393,-0.408069 -0.109696,-0.0992 -0.2646058,-0.148614 -0.4645387,-0.148614 -0.1854339,0 -0.3302326,0.04083 -0.4342053,0.122859 -0.1037819,0.08165 -0.1556729,0.195354 -0.1556729,0.340535 0,0.116564 0.04922,0.215195 0.1478511,0.295702 0.098822,0.08051 0.2665136,0.153956 0.5038384,0.220918 0.2371341,0.06677 0.422568,0.140029 0.5566833,0.220727 0.1339245,0.08013 0.2333186,0.173988 0.2979915,0.281204 0.064482,0.107025 0.096914,0.233127 0.096914,0.378308 0,0.23122 -0.090046,0.416463 -0.2705198,0.555729 -0.180283,0.139076 -0.4214233,0.208709 -0.7232304,0.208709 -0.1959265,0 -0.3788803,-0.03758 -0.5488614,-0.11294 C 2.9604644,59.351454 2.8294015,59.248626 2.7372569,59.117944 2.6451123,58.987072 2.5991354,58.83884 2.5991354,58.672865 h 0.378308 c 0,0.172461 0.063719,0.308865 0.1911572,0.408832 0.1272473,0.09997 0.2976099,0.14995 0.5105155,0.14995 0.1985975,0 0.3508364,-0.04064 0.4567169,-0.121525 0.1058804,-0.08108 0.1587253,-0.191538 0.1587253,-0.331186 0,-0.140029 -0.049029,-0.248008 -0.147088,-0.324509 -0.097868,-0.0765 -0.2756708,-0.151858 -0.5330271,-0.226451"
           style="fill:#f2f2f2;fill-opacity:1;fill-rule:nonzero;stroke:none;stroke-width:0.190776"
           id="path376" />
        <path
           d="M 5.8538056,58.445575 H 6.8240904 L 6.3379941,57.110718 Z m 1.0818885,0.307721 H 5.7401033 l -0.268612,0.746696 H 5.0834536 l 1.0899012,-2.853813 h 0.3292787 l 1.0918089,2.853813 H 7.2083125 Z"
           style="fill:#f2f2f2;fill-opacity:1;fill-rule:nonzero;stroke:none;stroke-width:0.190776"
           id="path380" />
        <path
           d="m 8.5595953,56.953843 v 2.238561 h 0.3958594 c 0.2901697,0 0.5158573,-0.09005 0.6772535,-0.27071 0.1613961,-0.180474 0.2420942,-0.43764 0.2420942,-0.771116 v -0.166737 c 0,-0.324319 -0.076119,-0.576334 -0.2283584,-0.756235 C 9.4942051,57.047705 9.2782471,56.956514 8.99857,56.953843 Z M 8.183195,59.500125 v -2.853812 h 0.8056454 c 0.2481991,0 0.4677819,0.05475 0.6585575,0.164448 0.1909664,0.109887 0.3382452,0.266132 0.4420271,0.468545 0.103973,0.202604 0.156627,0.435159 0.157771,0.697667 v 0.182381 c 0,0.269185 -0.05189,0.505174 -0.155672,0.707587 -0.1039732,0.202604 -0.2522058,0.358086 -0.44508,0.466637 -0.1926834,0.108361 -0.4172263,0.164067 -0.6732472,0.166547 z"
           style="fill:#f2f2f2;fill-opacity:1;fill-rule:nonzero;stroke:none;stroke-width:0.190776"
           id="path384" />
        <path
           d="m 12.633704,58.181026 h -1.236798 v 1.011492 h 1.436731 v 0.307531 h -1.813132 v -2.853813 h 1.793482 v 0.30753 h -1.417081 v 0.919539 h 1.236798 z"
           style="fill:#f2f2f2;fill-opacity:1;fill-rule:nonzero;stroke:none;stroke-width:0.190776"
           id="path388" />
        <path
           d="m 15.120025,58.181026 h -1.236798 v 1.011492 h 1.436731 v 0.307531 h -1.813132 v -2.853813 h 1.793482 v 0.30753 h -1.417081 v 0.919539 h 1.236798 z"
           style="fill:#f2f2f2;fill-opacity:1;fill-rule:nonzero;stroke:none;stroke-width:0.190776"
           id="path392" />
        <path
           d="m 16.479206,56.646255 0.933084,2.328607 0.932892,-2.328607 h 0.488195 v 2.853812 h -0.3764 V 58.3888 l 0.03529,-1.199598 -0.936899,2.310865 h -0.288262 l -0.934991,-2.305141 0.03739,1.193874 v 1.111267 h -0.3764 v -2.853812 z"
           style="fill:#f2f2f2;fill-opacity:1;fill-rule:nonzero;stroke:none;stroke-width:0.190776"
           id="path396" />
        <path
           d="m 23.000432,58.594628 c -0.03529,0.301807 -0.146706,0.534744 -0.334048,0.69862 -0.187533,0.163877 -0.437067,0.246101 -0.747841,0.246101 -0.3371,0 -0.607429,-0.120952 -0.810605,-0.362665 -0.203176,-0.241712 -0.30486,-0.565077 -0.30486,-0.970284 v -0.274527 c 0,-0.264987 0.04731,-0.498305 0.142128,-0.699764 0.09482,-0.201078 0.229122,-0.355606 0.402918,-0.463394 0.173797,-0.107789 0.375065,-0.161778 0.603614,-0.161778 0.303143,0 0.546191,0.08451 0.729145,0.253922 0.183144,0.169218 0.289406,0.4033 0.319549,0.702627 h -0.378308 c -0.03262,-0.227977 -0.103591,-0.393189 -0.212715,-0.495445 -0.108933,-0.102255 -0.261553,-0.153383 -0.457671,-0.153383 -0.240377,0 -0.428863,0.0889 -0.565459,0.266895 -0.136595,0.177803 -0.204893,0.430962 -0.204893,0.759096 v 0.276625 c 0,0.31001 0.06467,0.556492 0.194019,0.739637 0.129537,0.183144 0.310392,0.274717 0.543138,0.274717 0.2089,0 0.369342,-0.04731 0.481137,-0.142128 0.111794,-0.09463 0.186006,-0.259836 0.222444,-0.494872 z"
           style="fill:#f2f2f2;fill-opacity:1;fill-rule:nonzero;stroke:none;stroke-width:0.190776"
           id="path400" />
        <path
           d="m 24.588944,58.079114 0.744788,-1.432916 h 0.427528 l -0.984211,1.789476 v 1.064337 h -0.37621 v -1.064337 l -0.98402,-1.789476 h 0.431152 z"
           style="fill:#f2f2f2;fill-opacity:1;fill-rule:nonzero;stroke:none;stroke-width:0.190776"
           id="path404" />
        <path
           d="m 26.71077,58.165192 v 1.027327 h 0.621356 c 0.175132,0 0.313254,-0.0456 0.414556,-0.136214 0.101301,-0.091 0.152048,-0.216149 0.152048,-0.375637 0,-0.343587 -0.18696,-0.515476 -0.56069,-0.515476 z m 0,-0.301807 h 0.568321 c 0.16483,0 0.296465,-0.04121 0.395096,-0.123623 0.09863,-0.08261 0.148042,-0.1944 0.148042,-0.335955 0,-0.1572 -0.04579,-0.271474 -0.137359,-0.342824 -0.09138,-0.07135 -0.230647,-0.107216 -0.417417,-0.107216 H 26.71077 Z m -0.3764,1.636664 v -2.853812 h 0.933083 c 0.30982,0 0.542566,0.0641 0.698811,0.192111 0.156055,0.12801 0.234273,0.31745 0.234273,0.56832 0,0.133352 -0.03796,0.251252 -0.113702,0.353698 -0.07593,0.102828 -0.179139,0.182 -0.30982,0.238279 0.154147,0.04331 0.276243,0.125149 0.365526,0.2461 0.08967,0.120761 0.134306,0.264988 0.134306,0.432107 0,0.256021 -0.08299,0.457289 -0.248962,0.603805 -0.165784,0.146325 -0.400438,0.219392 -0.703581,0.219392 z"
           style="fill:#f2f2f2;fill-opacity:1;fill-rule:nonzero;stroke:none;stroke-width:0.190776"
           id="path408" />
        <path
           d="m 30.651565,58.181026 h -1.236798 v 1.011492 h 1.436731 v 0.307531 h -1.813132 v -2.853813 h 1.793482 v 0.30753 h -1.417081 v 0.919539 h 1.236798 z"
           style="fill:#f2f2f2;fill-opacity:1;fill-rule:nonzero;stroke:none;stroke-width:0.190776"
           id="path412" />
        <path
           d="m 31.900916,58.037944 h 0.578241 c 0.18696,0 0.335574,-0.04846 0.446033,-0.145562 0.110459,-0.09672 0.165594,-0.22626 0.165594,-0.38861 0,-0.176849 -0.05266,-0.312299 -0.157772,-0.406543 -0.105308,-0.09424 -0.257165,-0.141937 -0.455763,-0.143463 h -0.576333 z m 0.670386,0.30753 h -0.670386 v 1.154574 h -0.378308 v -2.853812 h 0.944912 c 0.321457,0 0.568702,0.07307 0.741735,0.219392 0.173224,0.146515 0.259837,0.359421 0.259837,0.639098 0,0.177803 -0.04808,0.332522 -0.144036,0.464539 -0.09615,0.131826 -0.229694,0.230838 -0.40082,0.295893 l 0.670195,1.211425 v 0.02347 H 33.19075 Z"
           style="fill:#f2f2f2;fill-opacity:1;fill-rule:nonzero;stroke:none;stroke-width:0.190776"
           id="path416" />
        <path
           d="m 36.240413,58.227976 c -0.322602,-0.09272 -0.557637,-0.20661 -0.704534,-0.342061 -0.147088,-0.135069 -0.220728,-0.302188 -0.220728,-0.500786 0,-0.224924 0.08986,-0.410549 0.269566,-0.557828 0.179711,-0.146706 0.41322,-0.220345 0.700719,-0.220345 0.196117,0 0.370868,0.03777 0.524442,0.113702 0.153575,0.07574 0.272428,0.180283 0.356751,0.313635 0.08432,0.133161 0.126484,0.278914 0.126484,0.437067 h -0.378499 c 0,-0.173034 -0.05475,-0.309057 -0.164639,-0.408069 -0.109696,-0.0992 -0.264606,-0.148614 -0.464539,-0.148614 -0.185434,0 -0.330042,0.04083 -0.434014,0.122859 -0.103973,0.08165 -0.155864,0.195354 -0.155864,0.340535 0,0.116564 0.04922,0.215195 0.148042,0.295702 0.09863,0.08051 0.266513,0.153956 0.503838,0.220918 0.237134,0.06677 0.422377,0.140029 0.556683,0.220727 0.133734,0.08013 0.233128,0.173988 0.297801,0.281204 0.06467,0.107025 0.09691,0.233127 0.09691,0.378308 0,0.23122 -0.09024,0.416463 -0.27052,0.555729 -0.180092,0.139076 -0.421423,0.208709 -0.72323,0.208709 -0.195927,0 -0.37888,-0.03758 -0.548862,-0.11294 -0.16979,-0.07497 -0.300662,-0.177802 -0.392997,-0.308484 -0.09195,-0.130872 -0.138122,-0.279104 -0.138122,-0.445079 h 0.378308 c 0,0.172461 0.06372,0.308865 0.191157,0.408832 0.127438,0.09997 0.29761,0.14995 0.510516,0.14995 0.198788,0 0.350836,-0.04064 0.456717,-0.121525 0.10588,-0.08108 0.158725,-0.191538 0.158725,-0.331186 0,-0.140029 -0.04884,-0.248008 -0.146897,-0.324509 -0.09806,-0.0765 -0.275671,-0.151858 -0.533218,-0.226451"
           style="fill:#f2f2f2;fill-opacity:1;fill-rule:nonzero;stroke:none;stroke-width:0.190776"
           id="path420" />
        <path
           d="m 39.599113,58.181026 h -1.236798 v 1.011492 h 1.436731 v 0.307531 h -1.813132 v -2.853813 h 1.793291 v 0.30753 h -1.41689 v 0.919539 h 1.236798 z"
           style="fill:#f2f2f2;fill-opacity:1;fill-rule:nonzero;stroke:none;stroke-width:0.190776"
           id="path424" />
        <path
           d="m 42.571416,58.594628 c -0.03529,0.301807 -0.146706,0.534744 -0.334048,0.69862 -0.187533,0.163877 -0.436876,0.246101 -0.747841,0.246101 -0.3371,0 -0.607238,-0.120952 -0.810414,-0.362665 -0.203176,-0.241712 -0.305051,-0.565077 -0.305051,-0.970284 v -0.274527 c 0,-0.264987 0.04731,-0.498305 0.142319,-0.699764 0.09482,-0.201078 0.229122,-0.355606 0.402727,-0.463394 0.173797,-0.107789 0.375256,-0.161778 0.603805,-0.161778 0.303143,0 0.546191,0.08451 0.729145,0.253922 0.182953,0.169218 0.289406,0.4033 0.319358,0.702627 h -0.378117 c -0.03262,-0.227977 -0.103591,-0.393189 -0.212715,-0.495445 -0.109124,-0.102255 -0.261744,-0.153383 -0.457671,-0.153383 -0.240377,0 -0.429054,0.0889 -0.565459,0.266895 -0.136786,0.177803 -0.204893,0.430962 -0.204893,0.759096 v 0.276625 c 0,0.31001 0.06467,0.556492 0.193828,0.739637 0.129537,0.183144 0.310583,0.274717 0.543138,0.274717 0.209091,0 0.369533,-0.04731 0.481327,-0.142128 0.111604,-0.09463 0.185816,-0.259836 0.222445,-0.494872 z"
           style="fill:#f2f2f2;fill-opacity:1;fill-rule:nonzero;stroke:none;stroke-width:0.190776"
           id="path428" />
        <path
           d="m 45.298916,56.646255 v 1.940379 c -0.0013,0.269184 -0.08585,0.48953 -0.253922,0.660656 -0.167692,0.171126 -0.395478,0.267086 -0.682977,0.288262 l -0.09997,0.0038 c -0.3123,0 -0.561453,-0.08432 -0.746887,-0.252777 -0.185434,-0.168646 -0.279486,-0.400629 -0.282157,-0.69595 V 56.64624 h 0.372394 v 1.932557 c 0,0.206419 0.05685,0.366862 0.170553,0.481327 0.113702,0.114275 0.275671,0.171507 0.486097,0.171507 0.212905,0 0.376018,-0.05685 0.488957,-0.170553 0.11313,-0.113702 0.169791,-0.273763 0.169791,-0.480182 V 56.64624 Z"
           style="fill:#f2f2f2;fill-opacity:1;fill-rule:nonzero;stroke:none;stroke-width:0.190776"
           id="path432" />
        <path
           d="m 46.473922,58.037944 h 0.578241 c 0.18696,0 0.335574,-0.04846 0.445843,-0.145562 0.110459,-0.09672 0.165784,-0.22626 0.165784,-0.38861 0,-0.176849 -0.05266,-0.312299 -0.157963,-0.406543 -0.105117,-0.09424 -0.256974,-0.141937 -0.455572,-0.143463 h -0.576333 z m 0.670386,0.30753 h -0.670386 v 1.154574 h -0.378117 v -2.853812 h 0.944721 c 0.321266,0 0.568702,0.07307 0.741735,0.219392 0.173415,0.146515 0.259837,0.359421 0.259837,0.639098 0,0.177803 -0.04808,0.332522 -0.144227,0.464539 -0.09596,0.131826 -0.229503,0.230838 -0.400819,0.295893 l 0.670576,1.211425 v 0.02347 h -0.403872 z"
           style="fill:#f2f2f2;fill-opacity:1;fill-rule:nonzero;stroke:none;stroke-width:0.190776"
           id="path436" />
        <path
           d="m 49.177861,59.50003 h -0.3764 v -2.853813 h 0.3764 z"
           style="fill:#f2f2f2;fill-opacity:1;fill-rule:nonzero;stroke:none;stroke-width:0.190776"
           id="path438" />
        <path
           d="m 51.985563,56.953843 h -0.91744 v 2.546282 H 50.693821 V 56.953843 H 49.77848 v -0.30753 h 2.207083 z"
           style="fill:#f2f2f2;fill-opacity:1;fill-rule:nonzero;stroke:none;stroke-width:0.190776"
           id="path442" />
        <path
           d="m 53.515298,58.079114 0.744788,-1.432916 h 0.427528 l -0.984211,1.789476 v 1.064337 h -0.37621 v -1.064337 l -0.98402,-1.789476 h 0.431152 z"
           style="fill:#f2f2f2;fill-opacity:1;fill-rule:nonzero;stroke:none;stroke-width:0.190776"
           id="path446" />
        <path
           d="m 58.558737,58.594628 c -0.03548,0.301807 -0.147088,0.534744 -0.334239,0.69862 -0.187532,0.163877 -0.436876,0.246101 -0.74784,0.246101 -0.337101,0 -0.607239,-0.120952 -0.810606,-0.362665 -0.203176,-0.241712 -0.304859,-0.565077 -0.304859,-0.970284 v -0.274527 c 0,-0.264987 0.04731,-0.498305 0.142318,-0.699764 0.09482,-0.201078 0.228931,-0.355606 0.402537,-0.463394 0.173987,-0.107789 0.375255,-0.161778 0.603805,-0.161778 0.303333,0 0.546381,0.08451 0.729144,0.253922 0.182954,0.169218 0.289597,0.4033 0.31974,0.702627 h -0.378499 c -0.03262,-0.227977 -0.1034,-0.393189 -0.212715,-0.495445 -0.109123,-0.102255 -0.261744,-0.153383 -0.45767,-0.153383 -0.240378,0 -0.428864,0.0889 -0.565459,0.266895 -0.136596,0.177803 -0.204703,0.430962 -0.204703,0.759096 v 0.276625 c 0,0.31001 0.06448,0.556492 0.193828,0.739637 0.129346,0.183144 0.310202,0.274717 0.543139,0.274717 0.20909,0 0.369532,-0.04731 0.481327,-0.142128 0.111603,-0.09463 0.185624,-0.259836 0.222253,-0.494872 z"
           style="fill:#f2f2f2;fill-opacity:1;fill-rule:nonzero;stroke:none;stroke-width:0.190776"
           id="path450" />
        <path
           d="m 59.655144,59.19248 h 1.352599 v 0.30753 h -1.730907 v -2.853812 h 0.378308 z"
           style="fill:#f2f2f2;fill-opacity:1;fill-rule:nonzero;stroke:none;stroke-width:0.190776"
           id="path454" />
        <path
           d="m 63.545002,56.646255 v 1.940379 c -0.0015,0.269184 -0.08604,0.48953 -0.253922,0.660656 -0.167883,0.171126 -0.395478,0.267086 -0.682977,0.288262 l -0.100157,0.0038 c -0.312109,0 -0.561071,-0.08432 -0.746696,-0.252777 -0.185625,-0.168646 -0.279677,-0.400629 -0.282348,-0.69595 V 56.64624 h 0.372394 v 1.932557 c 0,0.206419 0.05704,0.366862 0.170744,0.481327 0.113512,0.114275 0.275671,0.171507 0.485906,0.171507 0.213287,0 0.376209,-0.05685 0.489148,-0.170553 0.11313,-0.113702 0.1696,-0.273763 0.1696,-0.480182 V 56.64624 Z"
           style="fill:#f2f2f2;fill-opacity:1;fill-rule:nonzero;stroke:none;stroke-width:0.190776"
           id="path458" />
        <path
           d="m 64.720008,58.165192 v 1.027327 h 0.621356 c 0.175132,0 0.313254,-0.0456 0.414746,-0.136214 0.101111,-0.091 0.151858,-0.216149 0.151858,-0.375637 0,-0.343587 -0.18696,-0.515476 -0.56069,-0.515476 z m 0,-0.301807 h 0.568321 c 0.16483,0 0.296274,-0.04121 0.395096,-0.123623 0.09863,-0.08261 0.147851,-0.1944 0.147851,-0.335955 0,-0.1572 -0.0456,-0.271474 -0.137168,-0.342824 -0.09138,-0.07135 -0.230647,-0.107216 -0.417417,-0.107216 h -0.556683 z m -0.3764,1.636664 v -2.853812 h 0.933083 c 0.309629,0 0.542757,0.0641 0.698811,0.192111 0.156055,0.12801 0.234273,0.31745 0.234273,0.56832 0,0.133352 -0.03796,0.251252 -0.113702,0.353698 -0.07593,0.102828 -0.179139,0.182 -0.30982,0.238279 0.154147,0.04331 0.276052,0.125149 0.365717,0.2461 0.08947,0.120761 0.134115,0.264988 0.134115,0.432107 0,0.256021 -0.08299,0.457289 -0.248962,0.603805 -0.165975,0.146325 -0.400438,0.219392 -0.703581,0.219392 z"
           style="fill:#f2f2f2;fill-opacity:1;fill-rule:nonzero;stroke:none;stroke-width:0.190776"
           id="path462" />
        <g
           id="g12069"
           style="fill:#f2f2f2;stroke:none" />
        <path
           d="m 26.72567,42.17684 c -0.35408,0.362283 -0.531311,0.778174 -0.531311,1.247864 v 0 c 0,0.469117 0.177231,0.881001 0.531311,1.235272 v 0 c 0.35427,0.337673 0.757951,0.506509 1.211043,0.506509 v 0 c 0.461105,0 0.868983,-0.17704 1.223063,-0.531119 v 0 c 0.354079,-0.337864 0.53131,-0.741545 0.53131,-1.210662 v 0 c 0,-0.477703 -0.177231,-0.893975 -0.53131,-1.247864 v 0 c -0.362474,-0.338054 -0.770162,-0.506509 -1.223063,-0.506509 v 0 c -0.469689,0 -0.87318,0.168455 -1.211043,0.506509"
           style="fill:#f2f2f2;fill-opacity:1;stroke:none;stroke-width:0.190776"
           id="path212" />
        <path
           d="m 28.999982,42.58159 c -0.469499,0 -0.87318,0.168646 -1.210853,0.506509 -0.35427,0.362474 -0.53131,0.778365 -0.53131,1.247864 0,0.469308 0.17704,0.881192 0.53131,1.235463 0.35408,0.337672 0.757761,0.506509 1.210853,0.506509 0.461295,0 0.868983,-0.17704 1.223253,-0.53112 0.35408,-0.337863 0.53131,-0.741544 0.53131,-1.210852 0,-0.477703 -0.17723,-0.893784 -0.53131,-1.247864 -0.362664,-0.337863 -0.770352,-0.506509 -1.223253,-0.506509"
           style="opacity:0.100006;fill:#f2f2f2;fill-opacity:1;fill-rule:nonzero;stroke:none;stroke-width:0.190776"
           id="path168" />
        <path
           d="m 24.453131,42.58159 c -0.477511,0 -0.88539,0.168646 -1.223253,0.506509 -0.35408,0.362474 -0.53112,0.778365 -0.53112,1.247864 0,0.469308 0.17704,0.881192 0.53112,1.235463 0.362664,0.337672 0.770352,0.506509 1.223253,0.506509 0.452901,0 0.856583,-0.17704 1.210853,-0.53112 0.354079,-0.337863 0.53131,-0.741544 0.53131,-1.210852 0,-0.477703 -0.177231,-0.893784 -0.53131,-1.247864 -0.35427,-0.337863 -0.757952,-0.506509 -1.210853,-0.506509"
           style="opacity:0.100006;fill:#f2f2f2;fill-opacity:1;fill-rule:nonzero;stroke:none;stroke-width:0.190776"
           id="path172" />
        <path
           d="m 17.762382,36.965995 c -0.35408,0.387084 -0.877186,0.580721 -1.569129,0.580721 -1.400294,0 -2.10044,-0.91019 -2.10044,-2.730762 0,-0.790574 0.136023,-1.412503 0.407687,-1.865595 0.370677,-0.642532 0.943195,-0.963798 1.717363,-0.963798 0.782561,0 1.359276,0.321266 1.729953,0.963798 0.263461,0.453092 0.395287,1.075021 0.395287,1.865595 0,0.980396 -0.193637,1.69714 -0.580721,2.150041 m 10.872875,-1.383886 c 0,1.276861 -0.650736,1.915005 -1.952207,1.915005 H 25.200342 24.58261 23.767235 c -0.403681,0 -0.716744,-0.04121 -0.938997,-0.123432 C 22.40815,37.192446 22.086884,36.797159 21.864439,36.18744 21.724219,35.816953 21.613188,35.17423 21.530773,34.260034 21.481362,33.675306 21.40715,33.205617 21.308328,32.851537 21.077681,31.920743 20.665987,31.150773 20.072866,30.541054 19.125665,29.560849 17.8406,29.070746 16.217863,29.070746 H 9.3606237 C 7.540052,29.078949 6.1563564,29.495031 5.2091554,30.318609 4.1631327,31.249594 3.640026,32.649697 3.640026,34.519488 V 45.342762 L 6.938918,44.354544 V 35.14962 c 0,-1.06262 0.2182473,-1.828584 0.6549327,-2.298083 0.3870837,-0.444698 1.0088215,-0.667142 1.8657855,-0.667142 h 1.9026058 c -0.321267,0.790765 -0.4819,1.643341 -0.4819,2.557538 0,1.803974 0.53131,3.229068 1.593931,4.2749 0.947201,0.963798 2.195064,1.445698 3.74359,1.445698 1.573326,0 2.866594,-0.531311 3.879803,-1.59374 0.938998,1.062429 2.252679,1.59374 3.941234,1.59374 h 0.54371 0.617732 1.59393 c 1.548526,0 2.779983,-0.403491 3.69437,-1.210853 0.938998,-0.848379 1.408496,-2.022031 1.408496,-3.521337 v -7.215515 l -3.261881,1.06262 z"
           style="opacity:0.100006;fill:#f2f2f2;fill-opacity:1;fill-rule:nonzero;stroke:none;stroke-width:0.190776"
           id="path176" />
        <path
           d="m 64.141538,29.577351 v 6.078874 c 0.008,1.227451 -0.605522,1.840985 -1.840985,1.840985 h -1.927406 v -8.117693 l -3.262072,1.06262 v 7.055073 h -3.694179 v -7.129094 l -3.261691,1.06262 v 6.066474 h -2.199452 -0.617732 -2.829393 v -3.990835 c 0,-1.515522 -0.514712,-2.730572 -1.544519,-3.644959 -0.872989,-0.790765 -1.96022,-1.186052 -3.261691,-1.186052 -1.515712,0 -2.899599,0.572518 -4.151468,1.717362 v 3.064238 c 1.169454,-1.219056 2.302089,-1.828584 3.397523,-1.828584 0.642723,0 1.174033,0.193637 1.594121,0.580721 0.469499,0.428291 0.704153,1.004815 0.704153,1.729571 v 3.558538 h -5.770009 l -1.927406,2.965416 h 13.788689 0.617732 14.468423 c 1.581339,0 2.829393,-0.457289 3.74359,-1.371676 0.823578,-0.823388 1.235654,-1.902606 1.235654,-3.237081 l 0.03701,-7.339138 z"
           style="opacity:0.100006;fill:#f2f2f2;fill-opacity:1;fill-rule:nonzero;stroke:none;stroke-width:0.190776"
           id="path180" />
        <path
           d="m 58.764603,28.522686 0.201459,-0.06563 -5.781074,-12.71157 c 0.477893,-0.228359 0.822625,-0.699956 0.861352,-1.265987 0.05628,-0.83617 -0.57557,-1.5594 -1.410976,-1.61606 -0.670386,-0.04521 -1.267513,0.352362 -1.507128,0.942813 L 28.423267,4.0606729 c 0.11084,-0.1932557 0.182,-0.4130292 0.198216,-0.6499725 0.05647,-0.8361696 -0.57538,-1.5597815 -1.410977,-1.6162511 -0.835406,-0.056279 -1.559018,0.5751885 -1.615488,1.4111673 -0.03033,0.4475596 0.137931,0.8617334 0.42791,1.1599157 L 11.019189,20.742665 c -0.220919,-0.15758 -0.485906,-0.259454 -0.776648,-0.279104 -0.8355972,-0.05685 -1.5592091,0.574997 -1.6154879,1.410976 -0.056851,0.835788 0.5749977,1.559019 1.4105949,1.615679 0.07707,0.0052 0.152811,0.0027 0.227405,-0.0034 l 0.627651,4.270894 h 0.213097 L 10.47357,23.456067 c 0.191539,-0.04292 0.369914,-0.122669 0.527304,-0.231411 l 3.330752,4.53302 H 14.59337 L 11.165704,23.09264 c 0.276243,-0.253923 0.460151,-0.609147 0.487623,-1.01321 0.03167,-0.469499 -0.153765,-0.903322 -0.470262,-1.203603 L 26.179173,4.5070879 c 0.190776,0.1482326 0.418562,0.2520145 0.66886,0.2953206 L 25.324498,18.310658 c -0.04121,-0.0034 -0.0826,-0.0063 -0.124767,-0.0063 -0.84609,0 -1.531928,0.685839 -1.531928,1.531738 0,0.284065 0.07879,0.549052 0.213478,0.77722 l -6.354164,6.823853 0.169409,0.157962 6.319442,-6.786843 c 0.237325,0.288453 0.578432,0.48705 0.965516,0.542375 l -1.667761,14.788354 c 0.0048,0.005 0.0097,0.01011 0.01374,0.01374 0.03663,0.0072 0.09958,0.01679 0.19421,0.02347 l 1.67005,-14.808576 c 0.0027,0 0.0053,3.82e-4 0.008,3.82e-4 0.34683,0 0.665616,-0.116755 0.9224,-0.311155 l 2.770444,4.798579 0.200696,-0.115801 -2.793718,-4.838642 c 0.266895,-0.275671 0.431916,-0.650735 0.431916,-1.064909 0,-0.731434 -0.512996,-1.342107 -1.198453,-1.494346 L 27.057695,4.8222492 c 0.33462,0.011256 0.649019,-0.086803 0.907138,-0.2640335 L 41.349269,21.465133 c -0.358086,0.254494 -0.603042,0.661419 -0.635474,1.134161 -0.0311,0.462631 0.149378,0.89035 0.457862,1.190249 l -5.080546,4.348539 c 0.06811,0.03339 0.135069,0.0683 0.200506,0.106072 l 5.044488,-4.317253 c 0.223208,0.162732 0.492965,0.267849 0.788667,0.28769 0.419897,0.02862 0.811369,-0.117136 1.104209,-0.374874 l 5.613191,7.090176 v -0.339581 l -5.464577,-6.902834 c 0.205656,-0.239614 0.339772,-0.544283 0.362856,-0.883673 0.01908,-0.2854 -0.04312,-0.556683 -0.165021,-0.793817 l 7.705999,-6.595495 -0.137167,-0.160442 -7.678528,6.57222 c -0.254495,-0.359803 -0.662182,-0.606285 -1.135878,-0.638335 -0.287308,-0.01946 -0.560499,0.04407 -0.798778,0.167501 L 28.129663,4.4273436 c 0.06353,-0.057805 0.12286,-0.1201886 0.175895,-0.1881047 L 51.0628,14.007714 c -0.02137,0.08623 -0.03682,0.174941 -0.04312,0.266704 -0.05666,0.835597 0.574998,1.559209 1.410595,1.615679 0.02251,0.0017 0.04407,5.72e-4 0.06639,0.0013 l 0.885199,13.107239 0.206801,-0.06734 -0.881384,-13.04867 c 0.09672,-0.01107 0.190967,-0.03148 0.281585,-0.06029 z"
           style="opacity:0.100006;fill:#f2f2f2;fill-opacity:1;fill-rule:nonzero;stroke:none;stroke-width:0.190776"
           id="path184" />
        <path
           d="m 22.166514,42.17684 c -0.353889,0.362283 -0.53112,0.778174 -0.53112,1.247864 v 0 c 0,0.469117 0.177231,0.881001 0.53112,1.235272 v 0 c 0.362664,0.337673 0.770352,0.506509 1.223253,0.506509 v 0 c 0.452901,0 0.856583,-0.17704 1.211044,-0.531119 v 0 c 0.353888,-0.337864 0.531119,-0.741545 0.531119,-1.210662 v 0 c 0,-0.477703 -0.177231,-0.893975 -0.531119,-1.247864 v 0 C 24.24635,41.838786 23.842668,41.670331 23.389767,41.670331 v 0 c -0.477511,0 -0.885199,0.168455 -1.223253,0.506509"
           style="fill:#f2f2f2;fill-opacity:1;stroke:none;stroke-width:0.190776"
           id="path234" />
        <path
           d="m 27.57195,28.66592 v 6.004854 c 0,1.276861 -0.650735,1.915005 -1.952207,1.915005 v 0 h -1.482708 -0.617731 -0.815566 c -0.403491,0 -0.716553,-0.04121 -0.938998,-0.123432 v 0 c -0.420088,-0.181236 -0.741354,-0.576524 -0.963607,-1.186242 v 0 c -0.14022,-0.370677 -0.251443,-1.01321 -0.333667,-1.927597 v 0 c -0.04941,-0.584728 -0.123623,-1.054417 -0.222444,-1.408306 v 0 C 20.014374,31.009408 19.60268,30.239247 19.009559,29.629528 v 0 c -0.947201,-0.980205 -2.232266,-1.470117 -3.855003,-1.470117 v 0 H 8.2973169 c -1.8205717,0.0082 -3.204458,0.424094 -4.1514682,1.247863 v 0 c -1.0462135,0.930794 -1.5691295,2.331087 -1.5691295,4.200689 v 0 10.823464 l 3.298892,-0.988409 v -9.204924 c 0,-1.062429 0.2180566,-1.828584 0.6547419,-2.297892 v 0 c 0.3872746,-0.444698 1.0090123,-0.667333 1.8657856,-0.667333 v 0 h 1.9027963 c -0.3214572,0.790765 -0.4818995,1.64315 -0.4818995,2.557538 v 0 c 0,1.804165 0.5313105,3.229068 1.5939305,4.275091 v 0 c 0.94701,0.963607 2.194873,1.445697 3.74359,1.445697 v 0 c 1.573326,0 2.866594,-0.5315 3.879804,-1.594121 v 0 c 0.938997,1.062621 2.252869,1.594121 3.941233,1.594121 v 0 h 0.543711 0.617731 1.59374 c 1.548716,0 2.780173,-0.40349 3.69456,-1.211043 v 0 c 0.938998,-0.848189 1.408306,-2.02184 1.408306,-3.521337 v 0 -7.215515 z m -14.542444,5.238699 c 0,-0.790765 0.136023,-1.412694 0.407688,-1.865595 v 0 c 0.370677,-0.642532 0.943004,-0.963799 1.717362,-0.963799 v 0 c 0.782561,0 1.359276,0.321267 1.729953,0.963799 v 0 c 0.263461,0.452901 0.395287,1.07483 0.395287,1.865595 v 0 c 0,0.980205 -0.193637,1.696949 -0.580721,2.149659 v 0 c -0.35427,0.387466 -0.877186,0.580912 -1.569129,0.580912 v 0 c -1.400484,0 -2.10044,-0.91 -2.10044,-2.730571"
           style="fill:#f2f2f2;fill-opacity:1;stroke:none;stroke-width:0.190776"
           id="path256" />
        <path
           d="m 63.078155,28.66592 v 6.078874 c 0.008,1.227451 -0.605331,1.840985 -1.840985,1.840985 v 0 h -1.927406 v -8.117502 l -3.261882,1.06262 v 7.054882 h -3.69437 v -7.129094 l -3.26169,1.062429 v 6.066665 H 46.89237 46.274447 43.445054 v -3.990835 c 0,-1.515331 -0.514713,-2.730571 -1.544138,-3.644959 v 0 c -0.873371,-0.790574 -1.96041,-1.186052 -3.261881,-1.186052 v 0 c -1.515713,0 -2.899408,0.572518 -4.151659,1.717553 v 0 3.064047 c 1.169645,-1.218865 2.302471,-1.828584 3.397904,-1.828584 v 0 c 0.642532,0 1.173652,0.193637 1.59374,0.580721 v 0 c 0.469689,0.428291 0.704343,1.004815 0.704343,1.729572 v 0 3.558537 h -5.769818 l -1.927596,2.965416 h 13.788498 0.617923 14.468423 c 1.581529,0 2.829393,-0.457289 3.74378,-1.371676 v 0 c 0.823197,-0.823388 1.235463,-1.902606 1.235463,-3.23689 v 0 l 0.03682,-7.339329 z"
           style="fill:#f2f2f2;stroke:none;stroke-width:0.190776"
           id="path278" />
        <path
           d="m 24.53175,2.294243 c -0.03033,0.4473689 0.137931,0.8615427 0.4281,1.159725 v 0 L 9.9559202,19.831292 C 9.735002,19.673711 9.4700147,19.571837 9.1790819,19.552187 v 0 c -0.8355973,-0.05666 -1.5590184,0.574998 -1.615488,1.411167 v 0 c -0.056851,0.835598 0.5751885,1.558828 1.4107857,1.615488 v 0 c 0.077073,0.0052 0.1528113,0.0025 0.2274046,-0.0034 v 0 l 0.6276517,4.270894 H 10.042532 L 9.4103019,22.544694 c 0.191348,-0.04293 0.3697232,-0.122669 0.5273038,-0.231602 v 0 l 3.3307513,4.53321 h 0.261554 l -3.427666,-4.665227 c 0.276434,-0.253922 0.460342,-0.608956 0.487813,-1.013018 v 0 c 0.03148,-0.469499 -0.153956,-0.903323 -0.470262,-1.203604 v 0 L 25.115905,3.5957143 c 0.190775,0.1480419 0.418562,0.2520146 0.668859,0.2953207 v 0 l -1.523725,13.508059 c -0.04121,-0.0032 -0.08242,-0.0063 -0.124767,-0.0063 v 0 c -0.845899,0 -1.531737,0.686029 -1.531737,1.531928 v 0 c 0,0.284065 0.0786,0.548862 0.213287,0.777029 v 0 l -6.353973,6.824044 0.169409,0.157772 6.319442,-6.786652 c 0.237134,0.288452 0.578241,0.48705 0.965515,0.542375 v 0 l -1.66776,14.788354 c 0.0048,0.005 0.0095,0.01011 0.01374,0.01373 v 0 c 0.03644,0.0074 0.09959,0.01679 0.194019,0.02347 v 0 l 1.67024,-14.808576 c 0.0027,0 0.0053,3.81e-4 0.0078,3.81e-4 v 0 c 0.34683,0 0.665807,-0.116754 0.922591,-0.311155 v 0 l 2.770443,4.798389 0.200506,-0.11561 -2.793528,-4.838833 C 25.503179,19.713774 25.6682,19.3389 25.6682,18.924726 v 0 c 0,-0.731434 -0.512995,-1.342106 -1.198643,-1.494536 v 0 l 1.52487,-13.5193144 c 0.33462,0.011256 0.648827,-0.086612 0.907138,-0.2640334 v 0 L 40.28581,20.553759 c -0.357895,0.254495 -0.602851,0.661419 -0.635474,1.13397 v 0 c -0.0311,0.462822 0.149568,0.890541 0.458243,1.19025 v 0 l -5.080736,4.34873 c 0.06792,0.03339 0.13526,0.0683 0.200314,0.106071 v 0 l 5.044489,-4.317443 c 0.223399,0.163113 0.492964,0.267849 0.788857,0.28788 v 0 c 0.419898,0.02843 0.811369,-0.117136 1.10421,-0.375064 v 0 l 5.613,7.090366 v -0.33958 l -5.464386,-6.902835 c 0.205656,-0.239805 0.339581,-0.544282 0.362855,-0.883672 v 0 c 0.01908,-0.28521 -0.04312,-0.556684 -0.165211,-0.794008 v 0 l 7.70619,-6.595495 -0.137168,-0.160061 -7.678528,6.572029 c -0.254494,-0.359802 -0.662182,-0.606284 -1.136069,-0.638335 v 0 c -0.287117,-0.01946 -0.560498,0.04388 -0.798586,0.167501 v 0 L 27.066395,3.5159701 c 0.06353,-0.057996 0.122859,-0.1201886 0.175704,-0.1881047 v 0 L 49.999532,13.09634 c -0.02156,0.08623 -0.03701,0.174941 -0.04331,0.266705 v 0 c -0.05666,0.835597 0.575188,1.559209 1.410786,1.615678 v 0 c 0.02251,0.0015 0.04426,5.73e-4 0.0662,0.0011 v 0 l 0.885389,13.10743 0.20661,-0.06734 -0.881383,-13.048671 c 0.09691,-0.01126 0.190967,-0.03148 0.281394,-0.06029 v 0 l 5.776114,12.700314 0.201459,-0.06563 -5.781074,-12.711761 c 0.477702,-0.228359 0.822625,-0.699765 0.861161,-1.265797 v 0 c 0.05647,-0.836169 -0.575379,-1.5594 -1.410976,-1.61606 v 0 c -0.670195,-0.04541 -1.267514,0.352363 -1.506937,0.942813 v 0 L 27.359998,3.1492994 c 0.11065,-0.1932557 0.182,-0.41322 0.197835,-0.6501633 v 0 C 27.614684,1.6629665 26.982644,0.93954537 26.147238,0.88326656 v 0 c -0.03472,-0.00248 -0.06944,-0.003625 -0.103782,-0.003625 v 0 c -0.790956,0 -1.457717,0.61334354 -1.511706,1.41460114"
           style="fill:#f2f2f2;stroke:none;stroke-width:0.190776"
           id="path300" />
      </g>
    </g>
  </g>
</svg>
